<svg width="18" height="18" viewBox="0 0 18 18" fill="none" xmlns="http://www.w3.org/2000/svg">
<g opacity="0.8">
<path d="M11.4367 8.4375L10.781 9.1275C10.2564 9.6675 9.92859 10.125 9.92859 11.25H8.47145V10.875C8.47145 10.0425 8.79931 9.2925 9.32388 8.7525L10.2273 7.8075C10.4969 7.5375 10.6572 7.1625 10.6572 6.75C10.6572 5.9175 10.0014 5.25 9.20002 5.25C8.81356 5.25 8.44293 5.40804 8.16967 5.68934C7.8964 5.97064 7.74288 6.35218 7.74288 6.75H6.28574C6.28574 5.95435 6.59278 5.19129 7.13931 4.62868C7.68584 4.06607 8.4271 3.75 9.20002 3.75C9.97294 3.75 10.7142 4.06607 11.2607 4.62868C11.8073 5.19129 12.1143 5.95435 12.1143 6.75C12.1143 7.41 11.852 8.0025 11.4367 8.4375ZM9.92859 14.25H8.47145V12.75H9.92859V14.25ZM9.20002 1.5C8.24325 1.5 7.29584 1.69399 6.4119 2.0709C5.52796 2.44781 4.72478 3.00026 4.04824 3.6967C2.68191 5.10322 1.91431 7.01088 1.91431 9C1.91431 10.9891 2.68191 12.8968 4.04824 14.3033C4.72478 14.9997 5.52796 15.5522 6.4119 15.9291C7.29584 16.306 8.24325 16.5 9.20002 16.5C11.1323 16.5 12.9855 15.7098 14.3518 14.3033C15.7181 12.8968 16.4857 10.9891 16.4857 9C16.4857 4.8525 13.2072 1.5 9.20002 1.5Z" fill="#98A2B3"/>
</g>
</svg>
