<svg width="18" height="18" viewBox="0 0 18 18" fill="none" xmlns="http://www.w3.org/2000/svg">
<g opacity="0.8">
<path d="M11.3025 8.4375L10.6275 9.1275C10.0875 9.6675 9.75 10.125 9.75 11.25H8.25V10.875C8.25 10.0425 8.5875 9.2925 9.1275 8.7525L10.0575 7.8075C10.335 7.5375 10.5 7.1625 10.5 6.75C10.5 5.9175 9.825 5.25 9 5.25C8.60218 5.25 8.22065 5.40803 7.93934 5.68934C7.65804 5.97064 7.5 6.35217 7.5 6.75H6C6 5.95435 6.31607 5.19129 6.87868 4.62868C7.44129 4.06607 8.20435 3.75 9 3.75C9.79565 3.75 10.5587 4.06607 11.1213 4.62868C11.6839 5.19129 12 5.95435 12 6.75C12 7.41 11.73 8.0025 11.3025 8.4375ZM9.75 14.25H8.25V12.75H9.75V14.25ZM9 1.5C8.01509 1.5 7.03982 1.69399 6.12987 2.0709C5.21993 2.44781 4.39314 3.00026 3.6967 3.6967C2.29018 5.10322 1.5 7.01087 1.5 9C1.5 10.9891 2.29018 12.8968 3.6967 14.3033C4.39314 14.9997 5.21993 15.5522 6.12987 15.9291C7.03982 16.306 8.01509 16.5 9 16.5C10.9891 16.5 12.8968 15.7098 14.3033 14.3033C15.7098 12.8968 16.5 10.9891 16.5 9C16.5 4.8525 13.125 1.5 9 1.5Z" fill="#98A2B3"/>
</g>
</svg>
