<svg width="127" height="31" viewBox="0 0 127 31" fill="none" xmlns="http://www.w3.org/2000/svg">
<g clip-path="url(#clip0_2_492)">
<path d="M17.3146 0.5H0L8.65728 15.5L0 30.5H17.3146L25.9718 15.5L17.3146 0.5ZM14.4271 25.4991H8.65218L14.4271 15.5L8.65473 5.50085H14.4271L20.1893 15.5L14.4271 25.4991Z" fill="white"/>
<path d="M25.973 15.5L17.3158 0.5H0.0012207L8.65849 15.5H14.4309L8.6534 5.50085H14.4258L20.1879 15.5H25.973Z" fill="url(#paint0_linear_2_492)"/>
<path d="M25.2546 6.74852L28.8627 0.5H34.6351L28.1395 11.7494L25.2546 6.74852ZM25.2546 24.2489L28.8627 30.4975H34.6325L28.1395 19.2481L25.2546 24.2489Z" fill="url(#paint1_linear_2_492)"/>
<path d="M49.9872 8.6261C52.5371 8.6261 54.1413 10.0744 54.1413 12.3932C54.1413 13.88 53.2131 14.9431 52.2867 15.3109C53.3497 15.7364 54.3532 16.7592 54.3532 18.4983C54.3532 21.0289 52.6334 22.3809 50.1991 22.3809H44.6352V8.6261H49.9872ZM46.7228 10.5V14.4422H49.8138C51.1466 14.4422 52.0555 13.7417 52.0555 12.472C52.0555 11.2023 51.1483 10.5018 49.8138 10.5018L46.7228 10.5ZM46.7228 16.3161V20.5088H50.0065C51.4548 20.5088 52.2674 19.6209 52.2674 18.4072C52.2674 17.1935 51.4566 16.3214 50.0065 16.3214L46.7228 16.3161Z" fill="white"/>
<path d="M58.5651 20.5088H65.192V22.3827H56.4792V8.6261H58.5668L58.5651 20.5088Z" fill="white"/>
<path d="M74.3515 9.90104C75.7035 11.2531 75.742 12.6261 75.742 15.5052C75.742 18.3844 75.7035 19.7557 74.3515 21.1095C73.4635 21.9974 72.3042 22.5 70.7963 22.5C69.2884 22.5 68.1308 21.9974 67.2411 21.1095C65.8891 19.7574 65.8506 18.3844 65.8506 15.5052C65.8506 12.6261 65.8891 11.2548 67.2411 9.90104C68.129 9.01313 69.2884 8.5105 70.7963 8.5105C72.3042 8.5105 73.4618 9.01313 74.3515 9.90104ZM68.7473 11.2145C68.0713 11.9483 67.9364 12.7802 67.9364 15.5035C67.9364 18.2268 68.0713 19.0394 68.7473 19.7732C69.0159 20.0428 69.3351 20.2567 69.6866 20.4026C70.038 20.5486 70.4148 20.6237 70.7954 20.6237C71.176 20.6237 71.5528 20.5486 71.9043 20.4026C72.2558 20.2567 72.575 20.0428 72.8436 19.7732C73.5441 19.0587 73.6544 18.2268 73.6544 15.5035C73.6544 12.7802 73.5388 11.9291 72.8436 11.2145C72.2949 10.6818 71.5602 10.3839 70.7954 10.3839C70.0307 10.3839 69.296 10.6818 68.7473 11.2145Z" fill="white"/>
<path d="M87.5476 12.7347H85.4268C85.1186 11.3249 84.1711 10.3774 82.644 10.3774C82.2665 10.3649 81.8907 10.4325 81.5411 10.5755C81.1916 10.7186 80.8763 10.934 80.6159 11.2075C79.9154 11.9413 79.7858 12.7732 79.7858 15.4965C79.7858 18.2198 79.9207 19.0517 80.6159 19.7855C80.8763 20.059 81.1916 20.2744 81.5411 20.4175C81.8907 20.5605 82.2665 20.6281 82.644 20.6156C84.1693 20.6156 85.1168 19.6681 85.4268 18.2583H87.5529C87.0695 20.9834 85.1571 22.4895 82.6492 22.4895C81.1413 22.4895 79.9837 21.9869 79.094 21.099C77.7613 19.7469 77.7035 18.3739 77.7035 15.4947C77.7035 12.6156 77.7613 11.2443 79.094 9.89054C79.982 9.00263 81.1413 8.5 82.6492 8.5C85.1711 8.51051 87.066 10.0184 87.5476 12.7347Z" fill="white"/>
<path d="M95.1606 14.0166L100.087 22.3826H97.6352L93.7718 15.6016L91.4514 18.3844V22.3844H89.3655V8.62607H91.4514V15.5368L97.0731 8.62082H99.623L95.1606 14.0166Z" fill="white"/>
<path d="M110.019 8.6261C111.738 8.6261 112.956 9.16725 113.922 10.3652C114.928 11.6016 114.973 13.3021 114.973 15.5053C114.973 17.7084 114.935 19.4089 113.922 20.6454C112.956 21.8433 111.738 22.3844 110.019 22.3844H105.189V8.6261H110.019ZM107.274 10.5V20.5088H109.787C110.773 20.5088 111.565 20.2583 112.145 19.5806C112.821 18.8275 112.879 17.5525 112.879 15.5035C112.879 13.4545 112.821 12.176 112.145 11.4264C111.565 10.7504 110.773 10.4983 109.787 10.4983L107.274 10.5Z" fill="white"/>
<path d="M121.767 15.3301L126.036 22.3827H123.621L120.628 17.113L117.651 22.3879H115.255L119.506 15.3354L115.527 8.6261H117.922L120.628 13.5543L123.353 8.62785H125.749L121.767 15.3301Z" fill="white"/>
</g>
<defs>
<linearGradient id="paint0_linear_2_492" x1="16.8498" y1="15.3116" x2="8.89784" y2="0.278479" gradientUnits="userSpaceOnUse">
<stop stop-color="#D9DCE1"/>
<stop offset="1" stop-color="white"/>
</linearGradient>
<linearGradient id="paint1_linear_2_492" x1="21.7815" y1="15.5" x2="36.0329" y2="15.5" gradientUnits="userSpaceOnUse">
<stop stop-color="#00C9FF"/>
<stop offset="0.1" stop-color="#09CEF8"/>
<stop offset="0.7" stop-color="#39EAD4"/>
<stop offset="1" stop-color="#4BF5C6"/>
</linearGradient>
<clipPath id="clip0_2_492">
<rect width="126.036" height="30" fill="white" transform="translate(0 0.5)"/>
</clipPath>
</defs>
</svg>
