<svg width="21" height="23" viewBox="0 0 21 23" fill="none" xmlns="http://www.w3.org/2000/svg">
<path d="M20.5 23L15.25 18L15.88 20H3C2.33696 20 1.70107 19.7366 1.23223 19.2678C0.763392 18.7989 0.5 18.163 0.5 17.5V2.5C0.5 1.83696 0.763392 1.20107 1.23223 0.732233C1.70107 0.263392 2.33696 0 3 0H18C18.663 0 19.2989 0.263392 19.7678 0.732233C20.2366 1.20107 20.5 1.83696 20.5 2.5V23ZM10.5 5.8C7.82 5.8 5.94 6.95 5.94 6.95C6.97 6.03 8.77 5.5 8.77 5.5L8.6 5.33C6.91 5.36 5.38 6.53 5.38 6.53C3.66 10.12 3.77 13.22 3.77 13.22C5.17 15.03 7.25 14.9 7.25 14.9L7.96 14C6.71 13.73 5.92 12.62 5.92 12.62C5.92 12.62 7.8 13.9 10.5 13.9C13.2 13.9 15.08 12.62 15.08 12.62C15.08 12.62 14.29 13.73 13.04 14L13.75 14.9C13.75 14.9 15.83 15.03 17.23 13.22C17.23 13.22 17.34 10.12 15.62 6.53C15.62 6.53 14.09 5.36 12.4 5.33L12.23 5.5C12.23 5.5 14.03 6.03 15.06 6.95C15.06 6.95 13.18 5.8 10.5 5.8ZM8.43 9.59C9.08 9.59 9.61 10.16 9.6 10.86C9.6 11.55 9.08 12.13 8.43 12.13C7.79 12.13 7.27 11.55 7.27 10.86C7.27 10.16 7.78 9.59 8.43 9.59ZM12.6 9.59C13.25 9.59 13.77 10.16 13.77 10.86C13.77 11.55 13.25 12.13 12.6 12.13C11.96 12.13 11.44 11.55 11.44 10.86C11.44 10.16 11.95 9.59 12.6 9.59Z" fill="#98A2B3"/>
</svg>
