<svg width="25" height="24" viewBox="0 0 25 24" fill="none" xmlns="http://www.w3.org/2000/svg">
<g opacity="0.8">
<path d="M22.5 24L17.25 19L17.88 21H5C4.33696 21 3.70107 20.7366 3.23223 20.2678C2.76339 19.7989 2.5 19.163 2.5 18.5V3.5C2.5 2.83696 2.76339 2.20107 3.23223 1.73223C3.70107 1.26339 4.33696 1 5 1H20C20.663 1 21.2989 1.26339 21.7678 1.73223C22.2366 2.20107 22.5 2.83696 22.5 3.5V24ZM12.5 6.8C9.82 6.8 7.94 7.95 7.94 7.95C8.97 7.03 10.77 6.5 10.77 6.5L10.6 6.33C8.91 6.36 7.38 7.53 7.38 7.53C5.66 11.12 5.77 14.22 5.77 14.22C7.17 16.03 9.25 15.9 9.25 15.9L9.96 15C8.71 14.73 7.92 13.62 7.92 13.62C7.92 13.62 9.8 14.9 12.5 14.9C15.2 14.9 17.08 13.62 17.08 13.62C17.08 13.62 16.29 14.73 15.04 15L15.75 15.9C15.75 15.9 17.83 16.03 19.23 14.22C19.23 14.22 19.34 11.12 17.62 7.53C17.62 7.53 16.09 6.36 14.4 6.33L14.23 6.5C14.23 6.5 16.03 7.03 17.06 7.95C17.06 7.95 15.18 6.8 12.5 6.8ZM10.43 10.59C11.08 10.59 11.61 11.16 11.6 11.86C11.6 12.55 11.08 13.13 10.43 13.13C9.79 13.13 9.27 12.55 9.27 11.86C9.27 11.16 9.78 10.59 10.43 10.59ZM14.6 10.59C15.25 10.59 15.77 11.16 15.77 11.86C15.77 12.55 15.25 13.13 14.6 13.13C13.96 13.13 13.44 12.55 13.44 11.86C13.44 11.16 13.95 10.59 14.6 10.59Z" fill="#98A2B3"/>
</g>
</svg>
