<svg width="25" height="24" viewBox="0 0 25 24" fill="none" xmlns="http://www.w3.org/2000/svg">
<g opacity="0.8">
<path d="M12.5 2C11.1868 2 9.88642 2.25866 8.67317 2.7612C7.45991 3.26375 6.35752 4.00035 5.42893 4.92893C3.55357 6.8043 2.5 9.34784 2.5 12C2.5 16.42 5.37 20.17 9.34 21.5C9.84 21.58 10 21.27 10 21C10 20.77 10 20.14 10 19.31C7.23 19.91 6.64 17.97 6.64 17.97C6.18 16.81 5.53 16.5 5.53 16.5C4.62 15.88 5.6 15.9 5.6 15.9C6.6 15.97 7.13 16.93 7.13 16.93C8 18.45 9.47 18 10.04 17.76C10.13 17.11 10.39 16.67 10.67 16.42C8.45 16.17 6.12 15.31 6.12 11.5C6.12 10.39 6.5 9.5 7.15 8.79C7.05 8.54 6.7 7.5 7.25 6.15C7.25 6.15 8.09 5.88 10 7.17C10.79 6.95 11.65 6.84 12.5 6.84C13.35 6.84 14.21 6.95 15 7.17C16.91 5.88 17.75 6.15 17.75 6.15C18.3 7.5 17.95 8.54 17.85 8.79C18.5 9.5 18.88 10.39 18.88 11.5C18.88 15.32 16.54 16.16 14.31 16.41C14.67 16.72 15 17.33 15 18.26C15 19.6 15 20.68 15 21C15 21.27 15.16 21.59 15.67 21.5C19.64 20.16 22.5 16.42 22.5 12C22.5 10.6868 22.2413 9.38642 21.7388 8.17317C21.2362 6.95991 20.4997 5.85752 19.5711 4.92893C18.6425 4.00035 17.5401 3.26375 16.3268 2.7612C15.1136 2.25866 13.8132 2 12.5 2Z" fill="#98A2B3"/>
</g>
</svg>
