<svg width="25" height="24" viewBox="0 0 25 24" fill="none" xmlns="http://www.w3.org/2000/svg">
<path d="M11.5 18H13.5V16H11.5V18ZM12.5 2C11.1868 2 9.88642 2.25866 8.67317 2.7612C7.45991 3.26375 6.35752 4.00035 5.42893 4.92893C3.55357 6.8043 2.5 9.34784 2.5 12C2.5 14.6522 3.55357 17.1957 5.42893 19.0711C6.35752 19.9997 7.45991 20.7362 8.67317 21.2388C9.88642 21.7413 11.1868 22 12.5 22C15.1522 22 17.6957 20.9464 19.5711 19.0711C21.4464 17.1957 22.5 14.6522 22.5 12C22.5 10.6868 22.2413 9.38642 21.7388 8.17317C21.2362 6.95991 20.4997 5.85752 19.5711 4.92893C18.6425 4.00035 17.5401 3.26375 16.3268 2.7612C15.1136 2.25866 13.8132 2 12.5 2ZM12.5 20C8.09 20 4.5 16.41 4.5 12C4.5 7.59 8.09 4 12.5 4C16.91 4 20.5 7.59 20.5 12C20.5 16.41 16.91 20 12.5 20ZM12.5 6C11.4391 6 10.4217 6.42143 9.67157 7.17157C8.92143 7.92172 8.5 8.93913 8.5 10H10.5C10.5 9.46957 10.7107 8.96086 11.0858 8.58579C11.4609 8.21071 11.9696 8 12.5 8C13.0304 8 13.5391 8.21071 13.9142 8.58579C14.2893 8.96086 14.5 9.46957 14.5 10C14.5 12 11.5 11.75 11.5 15H13.5C13.5 12.75 16.5 12.5 16.5 10C16.5 8.93913 16.0786 7.92172 15.3284 7.17157C14.5783 6.42143 13.5609 6 12.5 6Z" fill="#EAECF0"/>
</svg>
