<svg width="21" height="17" viewBox="0 0 21 17" fill="none" xmlns="http://www.w3.org/2000/svg">
<path d="M20.96 2C20.19 2.35 19.36 2.58 18.5 2.69C19.38 2.16 20.06 1.32 20.38 0.31C19.55 0.81 18.63 1.16 17.66 1.36C16.87 0.5 15.76 0 14.5 0C12.15 0 10.23 1.92 10.23 4.29C10.23 4.63 10.27 4.96 10.34 5.27C6.77998 5.09 3.60998 3.38 1.49998 0.79C1.12998 1.42 0.919978 2.16 0.919978 2.94C0.919978 4.43 1.66998 5.75 2.82998 6.5C2.11998 6.5 1.45998 6.3 0.879978 6C0.879978 6 0.879978 6 0.879978 6.03C0.879978 8.11 2.35998 9.85 4.31998 10.24C3.95998 10.34 3.57998 10.39 3.18998 10.39C2.91998 10.39 2.64998 10.36 2.38998 10.31C2.92998 12 4.49998 13.26 6.38998 13.29C4.92998 14.45 3.07998 15.13 1.05998 15.13C0.719978 15.13 0.379978 15.11 0.039978 15.07C1.93998 16.29 4.19998 17 6.61998 17C14.5 17 18.83 10.46 18.83 4.79C18.83 4.6 18.83 4.42 18.82 4.23C19.66 3.63 20.38 2.87 20.96 2Z" fill="#98A2B3"/>
</svg>
