<svg width="25" height="24" viewBox="0 0 25 24" fill="none" xmlns="http://www.w3.org/2000/svg">
<g opacity="0.8">
<path d="M22.96 6C22.19 6.35 21.36 6.58 20.5 6.69C21.38 6.16 22.06 5.32 22.38 4.31C21.55 4.81 20.63 5.16 19.66 5.36C18.87 4.5 17.76 4 16.5 4C14.15 4 12.23 5.92 12.23 8.29C12.23 8.63 12.27 8.96 12.34 9.27C8.77998 9.09 5.60998 7.38 3.49998 4.79C3.12998 5.42 2.91998 6.16 2.91998 6.94C2.91998 8.43 3.66998 9.75 4.82998 10.5C4.11998 10.5 3.45998 10.3 2.87998 10C2.87998 10 2.87998 10 2.87998 10.03C2.87998 12.11 4.35998 13.85 6.31998 14.24C5.95998 14.34 5.57998 14.39 5.18998 14.39C4.91998 14.39 4.64998 14.36 4.38998 14.31C4.92998 16 6.49998 17.26 8.38998 17.29C6.92998 18.45 5.07998 19.13 3.05998 19.13C2.71998 19.13 2.37998 19.11 2.03998 19.07C3.93998 20.29 6.19998 21 8.61998 21C16.5 21 20.83 14.46 20.83 8.79C20.83 8.6 20.83 8.42 20.82 8.23C21.66 7.63 22.38 6.87 22.96 6Z" fill="#98A2B3"/>
</g>
</svg>
