<svg width="20" height="20" viewBox="0 0 20 20" fill="none" xmlns="http://www.w3.org/2000/svg">
<path d="M18.3333 20L13.9583 15.8333L14.4833 17.5H3.74996C3.19743 17.5 2.66752 17.2805 2.27682 16.8898C1.88612 16.4991 1.66663 15.9692 1.66663 15.4167V2.91666C1.66663 2.36413 1.88612 1.83422 2.27682 1.44352C2.66752 1.05282 3.19743 0.833328 3.74996 0.833328H16.25C16.8025 0.833328 17.3324 1.05282 17.7231 1.44352C18.1138 1.83422 18.3333 2.36413 18.3333 2.91666V20ZM9.99996 5.66666C7.76663 5.66666 6.19996 6.62499 6.19996 6.62499C7.05829 5.85833 8.55829 5.41666 8.55829 5.41666L8.41663 5.27499C7.00829 5.29999 5.73329 6.27499 5.73329 6.27499C4.29996 9.26666 4.39163 11.85 4.39163 11.85C5.55829 13.3583 7.29163 13.25 7.29163 13.25L7.88329 12.5C6.84163 12.275 6.18329 11.35 6.18329 11.35C6.18329 11.35 7.74996 12.4167 9.99996 12.4167C12.25 12.4167 13.8166 11.35 13.8166 11.35C13.8166 11.35 13.1583 12.275 12.1166 12.5L12.7083 13.25C12.7083 13.25 14.4416 13.3583 15.6083 11.85C15.6083 11.85 15.7 9.26666 14.2666 6.27499C14.2666 6.27499 12.9916 5.29999 11.5833 5.27499L11.4416 5.41666C11.4416 5.41666 12.9416 5.85833 13.8 6.62499C13.8 6.62499 12.2333 5.66666 9.99996 5.66666ZM8.27496 8.825C8.81663 8.825 9.25829 9.29999 9.24996 9.88333C9.24996 10.4583 8.81663 10.9417 8.27496 10.9417C7.74163 10.9417 7.30829 10.4583 7.30829 9.88333C7.30829 9.29999 7.73329 8.825 8.27496 8.825ZM11.75 8.825C12.2916 8.825 12.725 9.29999 12.725 9.88333C12.725 10.4583 12.2916 10.9417 11.75 10.9417C11.2166 10.9417 10.7833 10.4583 10.7833 9.88333C10.7833 9.29999 11.2083 8.825 11.75 8.825Z" fill="white"/>
</svg>
