<svg width="14" height="18" viewBox="0 0 14 18" fill="none" xmlns="http://www.w3.org/2000/svg">
<path d="M2.00004 0.666672C1.55801 0.666672 1.13409 0.842266 0.821529 1.15483C0.508969 1.46739 0.333374 1.89131 0.333374 2.33334V15.6667C0.333374 16.1087 0.508969 16.5326 0.821529 16.8452C1.13409 17.1577 1.55801 17.3333 2.00004 17.3333H12C12.4421 17.3333 12.866 17.1577 13.1786 16.8452C13.4911 16.5326 13.6667 16.1087 13.6667 15.6667V5.66667L8.66671 0.666672H2.00004ZM2.00004 2.33334H7.83337V6.50001H12V15.6667H2.00004V2.33334ZM3.66671 9.00001V10.6667H10.3334V9.00001H3.66671ZM3.66671 12.3333V14H7.83337V12.3333H3.66671Z" fill="white"/>
</svg>
