<svg width="20" height="20" viewBox="0 0 20 20" fill="none" xmlns="http://www.w3.org/2000/svg">
<path d="M9.16663 15H10.8333V13.3333H9.16663V15ZM9.99996 1.66666C8.90561 1.66666 7.82198 1.8822 6.81093 2.30099C5.79988 2.71978 4.88122 3.33361 4.1074 4.10743C2.5446 5.67024 1.66663 7.78985 1.66663 9.99999C1.66663 12.2101 2.5446 14.3297 4.1074 15.8925C4.88122 16.6664 5.79988 17.2802 6.81093 17.699C7.82198 18.1178 8.90561 18.3333 9.99996 18.3333C12.2101 18.3333 14.3297 17.4553 15.8925 15.8925C17.4553 14.3297 18.3333 12.2101 18.3333 9.99999C18.3333 8.90564 18.1177 7.82201 17.699 6.81096C17.2802 5.79991 16.6663 4.88125 15.8925 4.10743C15.1187 3.33361 14.2 2.71978 13.189 2.30099C12.1779 1.8822 11.0943 1.66666 9.99996 1.66666ZM9.99996 16.6667C6.32496 16.6667 3.33329 13.675 3.33329 9.99999C3.33329 6.32499 6.32496 3.33332 9.99996 3.33332C13.675 3.33332 16.6666 6.32499 16.6666 9.99999C16.6666 13.675 13.675 16.6667 9.99996 16.6667ZM9.99996 4.99999C9.1159 4.99999 8.26806 5.35118 7.64294 5.9763C7.01782 6.60142 6.66663 7.44927 6.66663 8.33332H8.33329C8.33329 7.8913 8.50889 7.46737 8.82145 7.15481C9.13401 6.84225 9.55793 6.66666 9.99996 6.66666C10.442 6.66666 10.8659 6.84225 11.1785 7.15481C11.491 7.46737 11.6666 7.8913 11.6666 8.33332C11.6666 9.99999 9.16663 9.79166 9.16663 12.5H10.8333C10.8333 10.625 13.3333 10.4167 13.3333 8.33332C13.3333 7.44927 12.9821 6.60142 12.357 5.9763C11.7319 5.35118 10.884 4.99999 9.99996 4.99999Z" fill="white"/>
</svg>
