<svg width="20" height="20" viewBox="0 0 20 20" fill="none" xmlns="http://www.w3.org/2000/svg">
<path d="M16.4916 12.8417C17.2833 11.0333 17.2833 8.95832 16.4916 7.15832L14.2083 8.19166C14.7083 9.34166 14.7083 10.65 14.2166 11.8083L16.4916 12.8417ZM12.85 3.50832C11.0416 2.71666 8.96663 2.71666 7.15829 3.50832L8.19163 5.78332C9.34996 5.29166 10.6583 5.29166 11.8166 5.79166L12.85 3.50832ZM3.50829 7.14999C2.71663 8.96666 2.71663 11.0333 3.50829 12.85L5.79163 11.8083C5.29163 10.6583 5.29163 9.34166 5.79163 8.18332L3.50829 7.14999ZM7.15829 16.4917C8.96663 17.2833 11.0416 17.2833 12.85 16.4833L11.8166 14.2083C10.6666 14.7083 9.34996 14.7083 8.19996 14.2167L7.15829 16.4917ZM9.99996 1.66666C11.0943 1.66666 12.1779 1.8822 13.189 2.30099C14.2 2.71978 15.1187 3.33361 15.8925 4.10743C16.6663 4.88125 17.2802 5.79991 17.699 6.81096C18.1177 7.82201 18.3333 8.90564 18.3333 9.99999C18.3333 12.2101 17.4553 14.3297 15.8925 15.8925C14.3297 17.4553 12.2101 18.3333 9.99996 18.3333C8.90561 18.3333 7.82198 18.1178 6.81093 17.699C5.79988 17.2802 4.88122 16.6664 4.1074 15.8925C2.5446 14.3297 1.66663 12.2101 1.66663 9.99999C1.66663 7.78985 2.5446 5.67024 4.1074 4.10743C5.67021 2.54463 7.78982 1.66666 9.99996 1.66666ZM9.99996 6.66666C9.1159 6.66666 8.26806 7.01785 7.64294 7.64297C7.01782 8.26809 6.66663 9.11594 6.66663 9.99999C6.66663 10.884 7.01782 11.7319 7.64294 12.357C8.26806 12.9821 9.1159 13.3333 9.99996 13.3333C10.884 13.3333 11.7319 12.9821 12.357 12.357C12.9821 11.7319 13.3333 10.884 13.3333 9.99999C13.3333 9.11594 12.9821 8.26809 12.357 7.64297C11.7319 7.01785 10.884 6.66666 9.99996 6.66666Z" fill="white"/>
</svg>
