<svg width="18" height="18" viewBox="0 0 18 18" fill="none" xmlns="http://www.w3.org/2000/svg">
<path d="M15.4916 11.8417C16.2833 10.0333 16.2833 7.95832 15.4916 6.15832L13.2083 7.19166C13.7083 8.34166 13.7083 9.64999 13.2166 10.8083L15.4916 11.8417ZM11.85 2.50832C10.0416 1.71666 7.96663 1.71666 6.15829 2.50832L7.19163 4.78332C8.34996 4.29166 9.65829 4.29166 10.8166 4.79166L11.85 2.50832ZM2.50829 6.14999C1.71663 7.96666 1.71663 10.0333 2.50829 11.85L4.79163 10.8083C4.29163 9.65832 4.29163 8.34166 4.79163 7.18332L2.50829 6.14999ZM6.15829 15.4917C7.96663 16.2833 10.0416 16.2833 11.85 15.4833L10.8166 13.2083C9.66663 13.7083 8.34996 13.7083 7.19996 13.2167L6.15829 15.4917ZM8.99996 0.666656C10.0943 0.666656 11.1779 0.882205 12.189 1.30099C13.2 1.71978 14.1187 2.33361 14.8925 3.10743C15.6663 3.88125 16.2802 4.79991 16.699 5.81096C17.1177 6.82201 17.3333 7.90564 17.3333 8.99999C17.3333 11.2101 16.4553 13.3297 14.8925 14.8925C13.3297 16.4553 11.2101 17.3333 8.99996 17.3333C7.90561 17.3333 6.82198 17.1178 5.81093 16.699C4.79988 16.2802 3.88122 15.6664 3.1074 14.8925C1.5446 13.3297 0.666626 11.2101 0.666626 8.99999C0.666626 6.78985 1.5446 4.67024 3.1074 3.10743C4.67021 1.54463 6.78982 0.666656 8.99996 0.666656ZM8.99996 5.66666C8.1159 5.66666 7.26806 6.01785 6.64294 6.64297C6.01782 7.26809 5.66663 8.11594 5.66663 8.99999C5.66663 9.88405 6.01782 10.7319 6.64294 11.357C7.26806 11.9821 8.1159 12.3333 8.99996 12.3333C9.88402 12.3333 10.7319 11.9821 11.357 11.357C11.9821 10.7319 12.3333 9.88405 12.3333 8.99999C12.3333 8.11594 11.9821 7.26809 11.357 6.64297C10.7319 6.01785 9.88402 5.66666 8.99996 5.66666Z" fill="white"/>
</svg>
