<svg width="20" height="20" viewBox="0 0 20 20" fill="none" xmlns="http://www.w3.org/2000/svg">
<path d="M12.5 6.66667V13.3333H4.16667V6.66667H12.5ZM13.3333 5H3.33333C3.11232 5 2.90036 5.0878 2.74408 5.24408C2.5878 5.40036 2.5 5.61232 2.5 5.83333V14.1667C2.5 14.3877 2.5878 14.5996 2.74408 14.7559C2.90036 14.9122 3.11232 15 3.33333 15H13.3333C13.5543 15 13.7663 14.9122 13.9226 14.7559C14.0789 14.5996 14.1667 14.3877 14.1667 14.1667V11.25L17.5 14.5833V5.41667L14.1667 8.75V5.83333C14.1667 5.61232 14.0789 5.40036 13.9226 5.24408C13.7663 5.0878 13.5543 5 13.3333 5Z" fill="#53B1FD"/>
</svg>
