<svg width="16" height="10" viewBox="0 0 16 10" fill="none" xmlns="http://www.w3.org/2000/svg">
<path d="M10.5 1.66667V8.33333H2.16667V1.66667H10.5ZM11.3333 0H1.33333C1.11232 0 0.900358 0.0877975 0.744078 0.244078C0.587797 0.400358 0.5 0.61232 0.5 0.833333V9.16667C0.5 9.38768 0.587797 9.59964 0.744078 9.75592C0.900358 9.9122 1.11232 10 1.33333 10H11.3333C11.5543 10 11.7663 9.9122 11.9226 9.75592C12.0789 9.59964 12.1667 9.38768 12.1667 9.16667V6.25L15.5 9.58333V0.416667L12.1667 3.75V0.833333C12.1667 0.61232 12.0789 0.400358 11.9226 0.244078C11.7663 0.0877975 11.5543 0 11.3333 0Z" fill="#53B1FD"/>
</svg>
